<?xml version="1.0" standalone="no"?>
<!DOCTYPE svg PUBLIC "-//W3C//DTD SVG 20010904//EN"
 "http://www.w3.org/TR/2001/REC-SVG-20010904/DTD/svg10.dtd">
<svg version="1.0" xmlns="http://www.w3.org/2000/svg"
 width="741.000000pt" height="1280.000000pt" viewBox="0 0 741.000000 1280.000000"
 preserveAspectRatio="xMidYMid meet">
<metadata>
Created by potrace 1.15, written by Peter Selinger 2001-2017
</metadata>
<g transform="translate(0.000000,1280.000000) scale(0.100000,-0.100000)"
fill="#000000" stroke="none">
<path d="M4260 8393 c0 -2878 -4 -4455 -10 -4543 -31 -416 -130 -651 -309
-737 -50 -24 -70 -27 -186 -31 -197 -6 -289 23 -388 124 -51 51 -113 165 -146
264 -11 36 -41 151 -66 255 -25 105 -48 198 -51 208 -5 16 -88 17 -1555 17
l-1550 0 5 -42 c4 -24 20 -176 36 -338 71 -698 187 -1146 420 -1625 182 -374
392 -667 682 -950 227 -223 443 -384 716 -534 690 -380 1595 -534 2478 -421
1288 165 2275 932 2747 2135 156 398 245 779 304 1305 16 144 17 471 20 4738
l3 4582 -1575 0 -1575 0 0 -4407z"/>
</g>
</svg>
